<mxfile host="65bd71144e">
    <diagram id="qRpjrsXPI0S49ttHmJyG" name="Page-1">
        <mxGraphModel dx="840" dy="732" grid="1" gridSize="10" guides="1" tooltips="1" connect="1" arrows="1" fold="1" page="1" pageScale="1" pageWidth="850" pageHeight="1100" math="0" shadow="0">
            <root>
                <mxCell id="0"/>
                <mxCell id="1" parent="0"/>
                <mxCell id="2" value="Admin" style="shape=umlActor;verticalLabelPosition=bottom;verticalAlign=top;html=1;outlineConnect=0;" vertex="1" parent="1">
                    <mxGeometry x="730" y="300" width="30" height="60" as="geometry"/>
                </mxCell>
                <mxCell id="3" value="User" style="shape=umlActor;verticalLabelPosition=bottom;verticalAlign=top;html=1;outlineConnect=0;" vertex="1" parent="1">
                    <mxGeometry x="50" y="290" width="30" height="60" as="geometry"/>
                </mxCell>
                <mxCell id="5" value="" style="swimlane;startSize=0;" vertex="1" parent="1">
                    <mxGeometry x="160" y="120" width="470" height="510" as="geometry"/>
                </mxCell>
                <mxCell id="7" value="Login" style="ellipse;whiteSpace=wrap;html=1;" vertex="1" parent="5">
                    <mxGeometry x="20" y="30" width="130" height="40" as="geometry"/>
                </mxCell>
                <mxCell id="9" value="Validation Checking" style="ellipse;whiteSpace=wrap;html=1;" vertex="1" parent="5">
                    <mxGeometry x="300" y="30" width="130" height="40" as="geometry"/>
                </mxCell>
                <mxCell id="10" value="Error Showing" style="ellipse;whiteSpace=wrap;html=1;" vertex="1" parent="5">
                    <mxGeometry x="300" y="120" width="130" height="40" as="geometry"/>
                </mxCell>
                <mxCell id="14" value="" style="endArrow=none;html=1;exitX=1;exitY=0.5;exitDx=0;exitDy=0;entryX=0;entryY=0.5;entryDx=0;entryDy=0;" edge="1" parent="5" source="7" target="9">
                    <mxGeometry width="50" height="50" relative="1" as="geometry">
                        <mxPoint x="220" y="280" as="sourcePoint"/>
                        <mxPoint x="270" y="230" as="targetPoint"/>
                    </mxGeometry>
                </mxCell>
                <mxCell id="15" value="" style="endArrow=none;html=1;exitX=0.921;exitY=0.856;exitDx=0;exitDy=0;exitPerimeter=0;entryX=0;entryY=0.5;entryDx=0;entryDy=0;" edge="1" parent="5" source="7" target="10">
                    <mxGeometry width="50" height="50" relative="1" as="geometry">
                        <mxPoint x="220" y="280" as="sourcePoint"/>
                        <mxPoint x="270" y="230" as="targetPoint"/>
                    </mxGeometry>
                </mxCell>
                <mxCell id="17" value="Take MCQ" style="ellipse;whiteSpace=wrap;html=1;" vertex="1" parent="5">
                    <mxGeometry x="30" y="210" width="130" height="40" as="geometry"/>
                </mxCell>
                <mxCell id="18" value="MCQ" style="ellipse;whiteSpace=wrap;html=1;" vertex="1" parent="5">
                    <mxGeometry x="200" y="215" width="130" height="30" as="geometry"/>
                </mxCell>
                <mxCell id="21" value="Add MCQ" style="ellipse;whiteSpace=wrap;html=1;" vertex="1" parent="5">
                    <mxGeometry x="320" y="270" width="130" height="30" as="geometry"/>
                </mxCell>
                <mxCell id="22" value="" style="endArrow=none;html=1;entryX=1;entryY=0.5;entryDx=0;entryDy=0;exitX=0.308;exitY=0;exitDx=0;exitDy=0;exitPerimeter=0;" edge="1" parent="5" source="21" target="18">
                    <mxGeometry width="50" height="50" relative="1" as="geometry">
                        <mxPoint x="220" y="280" as="sourcePoint"/>
                        <mxPoint x="270" y="230" as="targetPoint"/>
                    </mxGeometry>
                </mxCell>
                <mxCell id="24" value="&amp;lt;&amp;lt;include&amp;gt;&amp;gt;" style="text;html=1;strokeColor=none;fillColor=none;align=center;verticalAlign=middle;whiteSpace=wrap;rounded=0;" vertex="1" parent="5">
                    <mxGeometry x="190" y="20" width="60" height="30" as="geometry"/>
                </mxCell>
                <mxCell id="25" value="&amp;lt;&amp;lt;extends&amp;gt;&amp;gt;" style="text;html=1;strokeColor=none;fillColor=none;align=center;verticalAlign=middle;whiteSpace=wrap;rounded=0;" vertex="1" parent="5">
                    <mxGeometry x="205" y="90" width="60" height="30" as="geometry"/>
                </mxCell>
                <mxCell id="13" value="" style="endArrow=none;html=1;exitX=0.5;exitY=0.5;exitDx=0;exitDy=0;exitPerimeter=0;entryX=0;entryY=1;entryDx=0;entryDy=0;" edge="1" parent="1" source="3" target="7">
                    <mxGeometry width="50" height="50" relative="1" as="geometry">
                        <mxPoint x="380" y="400" as="sourcePoint"/>
                        <mxPoint x="430" y="350" as="targetPoint"/>
                    </mxGeometry>
                </mxCell>
                <mxCell id="16" value="" style="endArrow=none;html=1;entryX=0.5;entryY=0.5;entryDx=0;entryDy=0;entryPerimeter=0;exitX=1;exitY=0.5;exitDx=0;exitDy=0;" edge="1" parent="1" source="9" target="2">
                    <mxGeometry width="50" height="50" relative="1" as="geometry">
                        <mxPoint x="380" y="400" as="sourcePoint"/>
                        <mxPoint x="430" y="350" as="targetPoint"/>
                    </mxGeometry>
                </mxCell>
                <mxCell id="19" value="" style="endArrow=none;html=1;exitX=0.5;exitY=0.5;exitDx=0;exitDy=0;exitPerimeter=0;entryX=0;entryY=0.5;entryDx=0;entryDy=0;" edge="1" parent="1" source="3" target="17">
                    <mxGeometry width="50" height="50" relative="1" as="geometry">
                        <mxPoint x="380" y="400" as="sourcePoint"/>
                        <mxPoint x="430" y="350" as="targetPoint"/>
                    </mxGeometry>
                </mxCell>
                <mxCell id="20" value="" style="endArrow=none;html=1;exitX=1;exitY=0.5;exitDx=0;exitDy=0;" edge="1" parent="1" source="17">
                    <mxGeometry width="50" height="50" relative="1" as="geometry">
                        <mxPoint x="380" y="400" as="sourcePoint"/>
                        <mxPoint x="360" y="350" as="targetPoint"/>
                    </mxGeometry>
                </mxCell>
                <mxCell id="23" value="" style="endArrow=none;html=1;exitX=0.631;exitY=-0.074;exitDx=0;exitDy=0;exitPerimeter=0;" edge="1" parent="1" source="21" target="2">
                    <mxGeometry width="50" height="50" relative="1" as="geometry">
                        <mxPoint x="380" y="400" as="sourcePoint"/>
                        <mxPoint x="430" y="350" as="targetPoint"/>
                    </mxGeometry>
                </mxCell>
            </root>
        </mxGraphModel>
    </diagram>
</mxfile>